<svg width="1000" height="1000" viewBox="0 0 1000 1000" fill="none" xmlns="http://www.w3.org/2000/svg">
<g clip-path="url(#clip0_22_1628)">
<rect width="1000" height="1000" rx="300" fill="#A27CFF"/>
<path d="M-140.185 1302.14C-164.668 1302.14 -184.706 1282.67 -185.412 1258.2C-185.57 1252.65 -188.42 1120.31 -108.887 957.807C-107.573 955.131 -106.219 952.439 -104.823 949.754C-126.289 917.774 -141.498 878.282 -150.166 831.891C-160.862 774.697 -160.222 716.405 -148.437 662.103C-187.44 589.616 -207.967 508.271 -207.967 425.62C-207.967 150.136 16.157 -73.9886 291.642 -73.9886C493.244 -73.9886 672.889 45.1791 751.5 230.309C780.272 263.768 803.118 302.663 818.552 344.3L830.187 346.627C868.366 354.272 895.118 388.047 893.814 426.95L891.345 500.932C901.227 500.143 911.183 499.744 921.206 499.744C1123.44 499.744 1287.97 664.272 1287.97 866.505C1287.97 977.304 1237.96 1081.46 1152.81 1150.87C1165.23 1214.73 1164.2 1256.3 1164.14 1258.22C1163.41 1282.68 1143.39 1302.14 1118.91 1302.14H-140.185Z" fill="#A27CFF"/>
<path d="M289.713 881.689C540.652 881.689 744.079 678.263 744.079 427.324C744.079 176.385 540.652 -27.0413 289.713 -27.0413C38.7744 -27.0413 -164.652 176.385 -164.652 427.324C-164.652 678.263 38.7744 881.689 289.713 881.689Z" fill="#A27CFF"/>
<path d="M1116.99 1258.6H-142.105C-142.105 1258.6 -145.703 1133.74 -70.1668 979.399C1.29736 833.279 172.756 747.753 190.89 739.06V738.994C191.913 738.587 192.453 738.312 192.453 738.312C192.32 737.772 192.179 737.224 192.046 736.683C181.79 691.24 195.104 662.028 209.099 645.049C220.377 631.328 231.987 625.552 231.987 625.552L487.41 744.496L742.832 625.552C742.832 625.552 757.509 632.824 769.867 650.41C782.159 667.937 792.082 695.72 782.774 736.683C782.707 737.224 782.566 737.772 782.433 738.312C782.433 738.312 782.973 738.587 783.995 738.994C802.138 747.82 973.588 833.279 1045.05 979.399C1049.95 989.455 1054.56 999.37 1058.84 1009.08C1059.25 1010.17 1059.72 1011.19 1060.19 1012.21C1080.17 1058.61 1093.14 1101.54 1101.57 1138.08C1101.84 1139.17 1102.11 1140.33 1102.31 1141.41C1118.34 1212.41 1116.99 1258.6 1116.99 1258.6Z" fill="#D2D0FF"/>
<path d="M475.234 870.029C467.655 870.029 459.951 869.855 452.106 869.489C232.627 859.142 191.231 740.049 190.841 738.844C190.55 737.955 191.04 736.999 191.929 736.708C192.819 736.401 193.774 736.899 194.074 737.789C194.456 738.969 235.312 855.876 452.272 866.098C669.581 876.404 780.006 738.67 781.103 737.273C781.677 736.534 782.749 736.409 783.488 736.982C784.228 737.564 784.353 738.628 783.779 739.368C782.716 740.714 679.122 870.029 475.234 870.029Z" fill="#2F2444"/>
<path d="M722.105 992.579C722.105 991.698 721.357 990.951 720.41 990.951H570.143C569.188 990.951 568.448 991.698 568.448 992.579L554.519 1236.52C554.519 1236.99 554.727 1237.46 554.993 1237.8C555.334 1238.15 555.807 1238.34 556.214 1238.34H729.71C730.117 1238.34 730.591 1238.14 730.931 1237.8C731.206 1237.46 731.405 1237.06 731.405 1236.58L722.105 992.579ZM558.051 1234.95L571.706 994.341H718.773L727.948 1234.95H558.051Z" fill="#2F2444"/>
<path d="M769.859 650.409C767.074 656.8 764.016 663.042 760.758 669.025C712.049 759.513 625.035 812.153 536.858 826.896C471.237 837.9 402.831 829.747 342.37 796.936C285.649 766.095 236.533 712.632 209.091 645.041C220.369 631.32 231.979 625.544 231.979 625.544L487.401 744.487L742.824 625.544C742.824 625.552 757.5 632.815 769.859 650.409Z" fill="#2F2444"/>
<path d="M484.052 802.454C655.719 802.454 794.882 657.248 794.882 478.127C794.882 299.007 655.719 153.801 484.052 153.801C312.385 153.801 173.222 299.007 173.222 478.127C173.222 657.248 312.385 802.454 484.052 802.454Z" fill="#D2D0FF"/>
<path d="M758.182 481.336C754.991 542.744 731.213 598.318 694.056 641.583C676.329 662.236 655.536 680.104 632.44 694.431C629.93 696.06 550.754 708.626 550.754 708.626C537.033 715.217 489.919 735.254 489.919 735.254C484.825 735.254 479.664 735.046 474.494 734.78C371.242 728.871 284.627 665.967 243.738 578.405C243.331 577.449 242.857 576.435 242.384 575.413C238.237 566.238 234.571 556.731 231.513 547.09C231.106 545.869 230.699 544.647 230.358 543.417C221.391 514.072 217.318 482.757 219.014 450.42C223.909 358.037 274.787 279.443 348.354 235.146C364.319 225.497 381.165 217.552 399.033 211.369C431.304 200.092 466.416 194.997 502.693 197.108C539.784 199.144 574.764 208.652 606.22 224.01C637.128 239.086 664.503 259.738 687.399 284.736C734.812 336.305 762.121 406.132 758.182 481.336Z" fill="#2F2444"/>
<g opacity="0.15">
<path d="M689.286 441.502C678.216 484.585 659.816 526.305 631.285 559.498C602.663 592.791 563.245 616.884 520.735 621.388C473.622 626.283 425.76 606.404 391.221 572.621C356.781 538.838 335.19 492.123 326.181 443.754C317.172 395.286 320.264 344.948 329.937 296.671C334.159 275.62 339.694 254.66 348.329 235.171C364.286 225.481 381.173 217.544 399.008 211.378C431.287 200.116 466.391 195.022 502.709 197.083C539.784 199.144 574.788 208.635 606.228 224.01C637.102 239.094 664.511 259.754 687.407 284.72C693.034 301.075 696.882 318.013 698.669 335.249C702.525 370.794 698.112 406.938 689.286 441.502Z" fill="#D2D0FF"/>
</g>
<g opacity="0.28">
<path d="M694.089 641.525C651.596 691.016 591.443 724.641 523.918 733.068C532.578 634.062 535.353 533.203 513.804 436.341C495.038 352.029 458.762 269.835 399.016 211.361C431.336 200.158 466.416 194.98 502.75 197.075C539.808 199.202 574.755 208.677 606.219 224.01C646.693 285.169 678.373 351.397 689.269 425.039C699.906 496.76 699.441 569.189 694.089 641.525Z" fill="#D2D0FF"/>
</g>
<path d="M205.899 471.188C205.899 471.188 276.433 275.777 481.093 291.967C685.754 308.156 765.537 442.283 765.537 442.283L705.409 259.588L542.377 168.245L383.966 182.124L276.433 243.407L205.899 345.164L207.055 478.136L205.899 471.188Z" fill="#D2D0FF"/>
<path d="M372.406 597.221C432.432 597.221 481.094 548.559 481.094 488.533C481.094 428.506 432.432 379.845 372.406 379.845C312.379 379.845 263.718 428.506 263.718 488.533C263.718 548.559 312.379 597.221 372.406 597.221Z" fill="#FFBEFF"/>
<path d="M481.093 488.533C481.093 548.586 432.459 597.221 372.405 597.221C339.595 597.221 310.116 582.685 290.204 559.656C289.456 558.775 288.708 557.961 288.026 557.08C314.114 544.373 345.902 525.973 380.891 502.328C416.486 478.285 445.764 455.256 467.364 435.552C467.904 436.574 468.453 437.521 468.926 438.543C476.672 453.486 481.093 470.532 481.093 488.533Z" fill="#FFBEFF"/>
<path d="M634.003 678.466C634.003 683.902 633.529 689.27 632.44 694.431C629.931 696.06 627.412 697.623 624.836 698.986L624.77 699.052C622.044 700.64 618.603 701.604 615.836 703.099C612.669 704.812 610.168 707.039 606.902 708.634C606.835 708.634 606.835 708.634 606.835 708.634C593.114 715.225 578.911 720.66 564.043 724.874C563.977 724.874 563.977 724.874 563.91 724.874C562.489 725.297 561.342 724.466 559.888 724.857C558.292 725.289 556.38 726.926 554.743 727.317C554.677 727.317 554.677 727.317 554.677 727.317C544.621 729.827 534.432 731.73 523.969 733.027C512.757 734.522 501.413 735.27 489.936 735.27C476.007 720.394 467.514 700.423 467.514 678.483C467.514 667.953 469.483 657.831 473.015 648.598C473.622 647.102 474.237 645.606 474.919 644.185C487.958 615.313 517.037 595.209 550.796 595.209C554.943 595.209 559.015 595.484 562.954 596.09C564.309 596.298 565.672 596.498 566.96 596.772C576.95 598.741 586.316 602.548 594.743 607.775C595.283 608.116 595.832 608.457 596.372 608.797C600.245 611.374 603.91 614.233 607.309 617.424C607.782 617.831 608.264 618.238 608.663 618.712C613.625 623.466 617.971 628.835 621.57 634.677C621.911 635.151 622.177 635.699 622.451 636.173C624.354 639.364 626.049 642.697 627.545 646.163V646.229C627.753 646.769 628.019 647.318 628.227 647.924C631.078 655.196 632.981 663 633.662 671.153C633.729 671.693 633.803 672.242 633.803 672.848C633.936 674.66 634.003 676.563 634.003 678.466Z" fill="#A27CFF"/>
<path d="M622.451 636.148L588.277 660.607C585.352 662.709 582.027 665.094 578.221 665.975C577.34 666.108 576.384 666.25 575.437 666.25C572.379 666.25 569.187 665.161 567.284 662.377C565.655 659.933 565.381 656.468 566.536 652.595C568.099 647.567 571.356 643.287 573.667 640.503C582.426 630.04 594.319 622.028 607.292 617.407C607.766 617.815 608.248 618.222 608.647 618.696C595.607 623.175 583.715 631.128 574.955 641.583C572.778 644.234 569.586 648.373 568.165 653.127C567.625 655.03 566.877 658.695 568.705 661.413C570.675 664.338 574.822 664.945 577.806 664.263C581.338 663.515 584.33 661.338 587.313 659.235L621.553 634.644C621.911 635.126 622.185 635.674 622.451 636.148Z" fill="#FFE0E0"/>
<path d="M566.952 596.747C565.389 597.088 563.827 597.495 562.331 598.035C552.89 601.501 546.574 610.534 542.56 617.058C539.235 622.427 536.243 628.128 533.384 633.705C529.171 641.791 524.758 650.21 519.256 657.748C513.887 665.02 508.726 669.64 502.884 672.283C499.693 673.638 496.36 674.386 493.102 674.386C488.756 674.386 484.609 673.098 481.417 670.646C475.375 665.892 473.605 658.005 473.131 652.238C473.065 651.016 472.999 649.794 472.999 648.573C473.605 647.077 474.22 645.581 474.902 644.16C474.627 646.811 474.627 649.462 474.835 652.105C475.242 657.54 476.938 664.945 482.44 669.291C487.534 673.231 495.28 673.771 502.211 670.721C507.713 668.211 512.741 663.79 517.901 656.725C523.337 649.321 527.683 640.968 531.897 632.882C534.747 627.314 537.739 621.604 541.138 616.103C545.211 609.446 551.876 600.138 561.791 596.398C562.198 596.265 562.539 596.123 562.946 596.057C564.3 596.273 565.663 596.481 566.952 596.747Z" fill="#FFE0E0"/>
<path d="M628.227 647.899C625.576 650.343 623.066 652.861 620.415 655.437C609.27 666.507 597.726 677.926 582.85 683.154C579.11 684.442 574.839 685.331 570.558 685.331C564.915 685.331 559.281 683.769 555.134 679.688C551.469 676.089 549.225 670.721 548.884 664.538C548.136 652.038 554.66 638.517 567.359 626.499C575.37 618.895 584.678 612.504 594.734 607.75C595.275 608.091 595.823 608.432 596.363 608.772C586.174 613.593 576.659 619.984 568.514 627.729C561.383 634.519 549.557 648.24 550.579 664.413C550.92 670.189 552.956 675.217 556.289 678.475C563.012 685.132 574.157 684.45 582.243 681.533C596.779 676.439 608.198 665.161 619.268 654.29C621.919 651.573 624.636 648.922 627.354 646.345C627.421 646.279 627.495 646.204 627.562 646.204C627.753 646.744 628.019 647.293 628.227 647.899Z" fill="#FFE0E0"/>
<path d="M537.199 692.187C535.911 690.218 533.052 688.04 527.01 688.514C515.533 689.536 503.981 696.8 497.05 703.257C493.044 706.997 488.424 712.765 489.304 719.355C490.26 726.627 497.998 731.248 504.929 731.248H505.677C511.719 730.974 517.968 727.924 524.7 722.006C530.069 717.319 533.8 712.698 536.177 707.878C539.31 701.562 539.643 695.72 537.199 692.187ZM534.689 707.139C532.446 711.759 528.781 716.239 523.62 720.727C517.162 726.37 511.261 729.287 505.618 729.553H504.937C498.754 729.553 491.831 725.48 490.942 719.089C490.875 718.616 490.875 718.208 490.875 717.735C490.875 712.507 494.748 707.679 498.214 704.487C504.937 698.238 516.148 691.174 527.152 690.218C527.758 690.151 528.307 690.151 528.781 690.151C532.105 690.151 534.49 691.174 535.845 693.143C537.881 696.135 537.407 701.496 534.689 707.139Z" fill="#FFE0E0"/>
<path d="M633.795 672.832C621.163 676.505 609.677 683.428 600.577 692.935C597.793 695.786 595.208 698.977 592.698 702.036C587.945 707.745 583.124 713.654 576.941 717.926C572.935 720.776 568.448 722.821 564.035 724.857C563.968 724.857 563.968 724.857 563.902 724.857C560.91 725.738 557.86 726.552 554.727 727.3C557.103 726.079 559.547 724.99 561.924 723.901C566.744 721.799 571.639 719.621 575.986 716.563C581.961 712.349 586.715 706.507 591.335 700.939C593.912 697.814 596.496 694.623 599.347 691.697C608.722 681.915 620.606 674.785 633.654 671.111C633.729 671.677 633.795 672.217 633.795 672.832Z" fill="#FFE0E0"/>
<path d="M624.761 699.052C618.919 702.451 613.01 705.643 606.893 708.626C611.855 703.872 618.104 700.615 624.761 699.052Z" fill="#FFE0E0"/>
<path d="M555.677 424.863C573.399 424.863 587.765 410.497 587.765 392.775C587.765 375.053 573.399 360.687 555.677 360.687C537.956 360.687 523.589 375.053 523.589 392.775C523.589 410.497 537.956 424.863 555.677 424.863Z" fill="#FFE0E0"/>
<path d="M385.677 664.865C392.354 664.865 397.767 659.452 397.767 652.775C397.767 646.098 392.354 640.685 385.677 640.685C379 640.685 373.587 646.098 373.587 652.775C373.587 659.452 379 664.865 385.677 664.865Z" fill="#FFE0E0"/>
<path d="M425.677 649.865C429.593 649.865 432.767 646.691 432.767 642.775C432.767 638.859 429.593 635.685 425.677 635.685C421.762 635.685 418.587 638.859 418.587 642.775C418.587 646.691 421.762 649.865 425.677 649.865Z" fill="#FFE0E0"/>
<path d="M432.384 349.776C437.892 349.776 442.357 345.311 442.357 339.803C442.357 334.296 437.892 329.831 432.384 329.831C426.876 329.831 422.411 334.296 422.411 339.803C422.411 345.311 426.876 349.776 432.384 349.776Z" fill="#FFE0E0"/>
<path d="M536.451 528.424C541.959 528.424 546.424 523.959 546.424 518.451C546.424 512.943 541.959 508.478 536.451 508.478C530.944 508.478 526.479 512.943 526.479 518.451C526.479 523.959 530.944 528.424 536.451 528.424Z" fill="#FFE0E0"/>
<path d="M674.767 443.945C683.651 443.945 692.161 436.133 691.746 426.967C691.33 417.767 684.283 409.988 674.767 409.988C665.883 409.988 657.373 417.8 657.788 426.967C658.195 436.167 665.243 443.945 674.767 443.945Z" fill="#FFE0E0"/>
<path d="M604.525 564.759C609.985 564.759 609.993 556.265 604.525 556.265C599.065 556.265 599.048 564.759 604.525 564.759Z" fill="#FFE0E0"/>
<path d="M724.199 531.807C729.659 531.807 729.668 523.313 724.199 523.313C718.731 523.313 718.722 531.807 724.199 531.807Z" fill="#FFE0E0"/>
<path d="M654.821 623.724C660.281 623.724 660.29 615.23 654.821 615.23C649.353 615.238 649.344 623.724 654.821 623.724Z" fill="#FFE0E0"/>
<path d="M366.912 340.335C366.621 340.335 366.33 340.335 366.048 340.335C365.466 340.31 364.917 340.435 364.411 340.701C363.887 340.876 363.43 341.166 363.039 341.574C362.624 341.956 362.333 342.413 362.167 342.945C361.901 343.452 361.776 344 361.801 344.582C361.851 344.956 361.901 345.338 361.951 345.712C362.15 346.427 362.516 347.059 363.039 347.582C363.322 347.807 363.613 348.023 363.895 348.247C364.56 348.629 365.275 348.829 366.039 348.829C366.33 348.829 366.621 348.829 366.904 348.829C367.485 348.854 368.034 348.729 368.541 348.463C369.065 348.289 369.522 347.998 369.912 347.591C370.328 347.208 370.619 346.751 370.785 346.219C371.051 345.712 371.175 345.164 371.151 344.582C371.101 344.208 371.051 343.826 371.001 343.452C370.802 342.737 370.436 342.106 369.912 341.582C369.63 341.358 369.339 341.141 369.056 340.917C368.391 340.526 367.677 340.335 366.912 340.335Z" fill="#FFE0E0"/>
<path d="M248.974 437.28C254.434 437.28 254.443 428.787 248.974 428.787C243.506 428.787 243.497 437.28 248.974 437.28Z" fill="#FFE0E0"/>
<path d="M306.202 621.122C311.662 621.122 311.67 612.629 306.202 612.629C300.742 612.637 300.733 621.122 306.202 621.122Z" fill="#FFE0E0"/>
<path d="M447.56 621.995C453.02 621.995 453.028 613.501 447.56 613.501C442.1 613.501 442.091 621.995 447.56 621.995Z" fill="#FFE0E0"/>
<path d="M504.796 559.548C510.256 559.548 510.264 551.054 504.796 551.054C499.336 551.063 499.319 559.548 504.796 559.548Z" fill="#FFE0E0"/>
<path d="M581.977 464.157C587.437 464.157 587.446 455.664 581.977 455.664C576.517 455.672 576.501 464.157 581.977 464.157Z" fill="#FFE0E0"/>
<path d="M772.469 383.31L776.691 384.158L819.375 392.693C835.672 395.951 847.216 410.52 846.659 427.133L843.759 514.063C843.293 527.967 834.392 540.192 821.303 544.896L768.995 563.695L772.469 383.31Z" fill="#D2D0FF"/>
<path d="M192.237 383.31L188.015 384.158L145.331 392.693C129.033 395.951 117.49 410.52 118.047 427.133L120.947 514.063C121.412 527.967 130.313 540.192 143.403 544.896L195.711 563.695L192.237 383.31Z" fill="#D2D0FF"/>
</g>
<rect x="3" y="3" width="994" height="994" rx="297" stroke="white" stroke-width="6"/>
<defs>
<clipPath id="clip0_22_1628">
<rect width="1000" height="1000" rx="300" fill="white"/>
</clipPath>
</defs>
</svg>
